# xmcd
#
# Track frame offsets: 
#        150
#        136743
#        163247
#        190301
#        231579
#        303117
#        339806
#
# Disc length: 4742 seconds
#
# Revision: 0
# Processed by: cddbd v1.5.2PL0 Copyright (c) Steve Scherf et al.
# Submitted via: ExactAudioCopy v1.0b3
#
DISCID=58128407
DTITLE=Ron Boots and John Kerr - Juxtaposition
DYEAR=2015
DGENRE=Electronic
TTITLE0=Juxtaposition
TTITLE1=There's Magic All Around Us
TTITLE2=Retrospective Futures
TTITLE3=Asymmetry
TTITLE4=Sentimental Values and Industrial Feelings
TTITLE5=And The Room Was Filled With a Deafening Silence
TTITLE6=The Final Juxtaposition
EXTD=
EXTT0=
EXTT1=
EXTT2=
EXTT3=
EXTT4=
EXTT5=
EXTT6=
PLAYORDER=
